<svg width="95" height="304" viewBox="0 0 95 304" fill="none" xmlns="http://www.w3.org/2000/svg">
<path d="M35.7594 288.027C40.8792 287.003 46.5842 288.027 83.0082 288.027C119.432 288.027 140.35 286.857 150.444 285.248C160.537 283.639 183.064 287.442 176.921 292.855C170.777 298.267 110.655 306.02 100.416 301.632C90.176 297.243 10.3065 306.605 16.7429 295.927C21.8919 287.384 31.566 287.101 35.7594 288.027Z" fill="black" fill-opacity="0.13"/>
<g clip-path="url(#clip0_1_377)">
<path d="M66.9678 75.103C66.231 75.5194 65.4776 75.5721 65.2781 75.2226L63.0969 71.3755C62.8974 71.026 63.3334 70.4059 64.0676 69.9882C64.8044 69.5718 65.5617 69.5177 65.7587 69.8659L67.9398 73.713C68.1394 74.0625 67.702 74.6853 66.9678 75.103Z" fill="#2B242A"/>
<path d="M64.2121 69.2834C64.2121 69.2834 63.2686 70.3905 64.7399 72.9844C66.2111 75.5783 67.6477 75.3371 67.6477 75.3371C67.6477 75.3371 84.4371 64.9481 86.6672 63.6857C88.8973 62.4232 86.8116 57.6675 84.1213 59.1956C81.4309 60.7236 64.2121 69.2834 64.2121 69.2834Z" fill="#BC7BFB"/>
<g style="mix-blend-mode:soft-light">
<path d="M67.4029 74.7828C70.3064 72.9879 83.8901 64.597 85.8788 63.4669L85.9205 63.4418C83.815 62.2476 67.1869 74.2947 67.4029 74.7828Z" fill="white"/>
</g>
<g style="mix-blend-mode:multiply">
<path d="M67.5986 74.3049C67.277 73.2169 67.2142 72.0868 67.7105 71.0333C68.3386 69.6924 69.4382 68.6524 70.5554 67.7092C73.1998 65.4801 76.0005 63.5628 79.416 62.7671C81.9313 62.1834 84.6982 62.1085 86.9722 63.464C88.6931 61.9572 86.6748 57.7467 84.1213 59.1954C81.4335 60.7183 64.2135 69.2806 64.2135 69.2806C64.2135 69.2806 63.27 70.3877 64.7412 72.9816C66.2125 75.5755 67.649 75.3343 67.649 75.3343L67.9267 75.1613C67.7965 74.8843 67.6869 74.598 67.5986 74.3049Z" fill="#BC7BFB"/>
</g>
<g style="mix-blend-mode:soft-light">
<g style="mix-blend-mode:soft-light">
<path d="M68.9404 74.5395L64.0735 71.4432C64.1698 71.7774 64.2942 72.1027 64.4455 72.4158L68.3511 74.9015C68.5141 74.8089 68.7174 74.6743 68.9404 74.5395Z" fill="white"/>
</g>
<g style="mix-blend-mode:soft-light">
<path d="M71.3753 73.0349L64.9194 68.9273L64.2671 69.2581L70.7834 73.4021C70.9776 73.2793 71.1745 73.1578 71.3753 73.0349Z" fill="white"/>
</g>
<g style="mix-blend-mode:soft-light">
<path d="M74.6096 71.0378L68.4926 67.1493C68.2695 67.2579 68.0582 67.369 67.8403 67.4802L74.019 71.4089L74.6096 71.0378Z" fill="white"/>
</g>
<g style="mix-blend-mode:soft-light">
<path d="M77.8477 69.0466L72.0459 65.3591L71.3962 65.6912L77.244 69.4112L77.8477 69.0466Z" fill="white"/>
</g>
<g style="mix-blend-mode:soft-light">
<path d="M81.0914 67.0569L75.6297 63.5794L74.98 63.9116L80.4929 67.4111L81.0914 67.0569Z" fill="white"/>
</g>
<g style="mix-blend-mode:soft-light">
<path d="M84.3435 65.0716L79.1576 61.7887C78.9463 61.8933 78.7271 62.0005 78.5106 62.1221L83.7516 65.4322L84.3435 65.0716Z" fill="white"/>
</g>
<g style="mix-blend-mode:soft-light">
<path d="M86.3129 62.2718L82.6845 59.9651L82.0453 60.3024L86.9633 63.4272L86.3129 62.2718Z" fill="white"/>
</g>
</g>
<path d="M89.6392 61.7124C92.1249 60.3019 112.339 60.5566 117.841 60.7406C116.768 59.2788 105.319 55.5154 105.319 55.5154C105.319 55.5154 107.531 57.7308 104.181 57.8901C99.5871 58.1117 94.2389 58.2093 93.1714 58.2312C91.4746 58.2593 91.3098 57.3758 92.0387 56.2608C92.4809 55.5818 95.3368 50.9976 98.0421 47.0633C99.3993 45.0902 100.69 47.3895 100.69 47.3895C100.69 47.3895 105.01 31.3876 102.608 33.8796C99.8414 39.6526 89.9793 56.0319 87.2823 57.5535C84.5853 59.0751 87.1522 63.1189 89.6392 61.7124Z" fill="#352E35"/>
<path d="M137.186 54.957C136.625 54.5167 136.1 54.0333 135.615 53.5112C134.835 54.0642 134.028 54.5776 133.197 55.0495C122.345 61.1858 109.59 59.1465 104.671 50.4768C100.173 42.5621 103.766 31.887 112.646 25.4049C112.165 24.8944 111.744 24.332 111.388 23.7282C101.416 30.9507 97.368 42.912 102.385 51.7539C107.868 61.4292 122.109 63.7111 134.208 56.8557C135.236 56.2794 136.23 55.6455 137.186 54.957Z" fill="#352E35"/>
<path d="M103.228 51.4064C98.1678 42.481 103.326 33.4507 105.298 29.8856C99.7909 36.2619 98.4853 44.8944 102.44 51.8532C106.771 59.4927 116.528 62.057 124.876 60.1731C119.997 60.756 107.761 59.4033 103.228 51.4064Z" fill="#2B242A"/>
<path d="M89.939 62.2417C89.7755 62.3193 89.588 62.3293 89.4171 62.2695C89.2463 62.2098 89.1059 62.0851 89.0265 61.9225L86.8454 58.0753C86.7459 57.9237 86.7107 57.7388 86.7475 57.5612C86.7842 57.3836 86.8899 57.2279 87.0414 57.1282C87.2047 57.0498 87.3925 57.0394 87.5636 57.0992C87.7346 57.159 87.875 57.2843 87.9539 57.4474L90.1336 61.2906C90.2329 61.4429 90.2681 61.6281 90.2317 61.8061C90.1952 61.9842 90.09 62.1407 89.939 62.2417Z" fill="#2B242A"/>
<path d="M86.8336 57.6535L84.6781 58.8759L87.2238 63.3651L89.3794 62.1427L86.8336 57.6535Z" fill="#161013"/>
<path d="M87.3998 63.6815C87.2359 63.7598 87.0476 63.7701 86.8761 63.7101C86.7047 63.65 86.5639 63.5245 86.4847 63.361L84.3049 59.5178C84.2057 59.3655 84.1705 59.1803 84.2069 59.0023C84.2434 58.8242 84.3485 58.6677 84.4996 58.5667C84.6637 58.489 84.8519 58.4793 85.0231 58.5399C85.1944 58.6004 85.3347 58.7262 85.4134 58.8899L87.5932 62.7331C87.6918 62.885 87.7267 63.0695 87.6905 63.2469C87.6544 63.4243 87.55 63.5803 87.3998 63.6815Z" fill="#2B242A"/>
</g>
<path d="M64.9466 124.339C64.0104 121.413 64.5565 98.7398 64.9466 87.7687L70.2809 89.6703C69.8421 94.0588 75.04 107.955 75.04 109.146C78.15 107.162 83.4129 105.664 86.7425 105.03C88.8392 107.322 92.8863 112.081 92.3012 112.783C91.5698 113.66 66.1169 127.996 64.9466 124.339Z" fill="#FF7CA6"/>
<mask id="mask0_1_377" style="mask-type:alpha" maskUnits="userSpaceOnUse" x="64" y="87" width="29" height="38">
<path d="M64.9474 124.339C64.0112 121.413 64.5573 98.7398 64.9474 87.7687L70.2817 89.6703C69.8429 94.0588 75.0408 107.955 75.0408 109.146C78.1508 107.162 83.4137 105.664 86.7433 105.03C88.84 107.322 92.8871 112.081 92.302 112.783C91.5706 113.66 66.1177 127.996 64.9474 124.339Z" fill="#FF7CA6"/>
</mask>
<g mask="url(#mask0_1_377)">
<path d="M63.1925 126.387C62.2563 123.461 62.8024 100.788 63.1925 89.8167L68.5268 91.7183C68.088 96.1067 73.2859 110.003 73.2859 111.194C76.3959 109.21 81.6588 107.712 84.9884 107.078C87.0851 109.37 91.1322 114.129 90.5471 114.831C89.8157 115.708 64.3628 130.044 63.1925 126.387Z" fill="#FB94B5"/>
<path d="M62.315 129.312C61.3788 126.387 61.9249 103.713 62.315 92.7421L67.3568 90.6942C66.9179 95.0826 72.4084 112.929 72.4084 114.119C75.5184 112.135 80.7813 110.638 84.1109 110.003C86.2076 112.295 90.2547 117.054 89.6696 117.756C88.9382 118.634 63.4853 132.969 62.315 129.312Z" fill="#FFAFC9"/>
<path d="M65.3093 95.0826C65.4263 94.2634 64.8705 91.7181 64.5779 90.5479L60.3358 124.485C62.4325 125.119 66.8306 126.445 67.6498 126.679C68.6738 126.972 76.0261 122.215 74.9639 122.291C70.868 122.583 66.3333 124.339 65.8944 123.754C65.4556 123.169 65.6019 122.145 65.6019 120.243C65.6019 118.716 65.4556 111.173 65.3093 110.003C65.163 108.833 65.3093 105.907 65.3093 105.176C65.3093 104.445 65.163 96.1065 65.3093 95.0826Z" fill="#FEF2F7"/>
</g>
<path d="M94.9662 250.424C91.5572 246.223 98.3303 196.482 102.143 172.137C109.389 169.419 117.12 160.624 120.079 156.566C120.131 157.248 121.086 159.81 124.497 164.595C127.908 169.381 130.042 174.181 130.682 175.983C131.212 193.184 122.273 223.795 117.737 236.951C131.773 238.168 147.646 253.394 153.956 261.035L150.777 271.871C148.773 270.513 141.454 266.463 128.211 261.128C111.657 254.459 99.2274 255.674 94.9662 250.424Z" fill="url(#paint0_linear_1_377)"/>
<mask id="mask1_1_377" style="mask-type:alpha" maskUnits="userSpaceOnUse" x="94" y="156" width="60" height="116">
<path d="M94.9662 250.424C91.5572 246.223 98.3303 196.482 102.143 172.137C109.389 169.419 117.12 160.624 120.079 156.566C120.131 157.248 121.086 159.81 124.497 164.595C127.908 169.381 130.042 174.181 130.682 175.983C131.212 193.184 122.273 223.795 117.737 236.951C131.773 238.168 147.646 253.394 153.956 261.035L150.777 271.871C148.773 270.513 141.454 266.463 128.211 261.128C111.657 254.459 99.2274 255.674 94.9662 250.424Z" fill="#F89AB8"/>
</mask>
<g mask="url(#mask1_1_377)">
<path d="M91.4662 253.362C88.0573 249.162 94.8304 199.421 98.643 175.075C105.889 172.357 112.563 162.396 115.523 158.338C115.574 159.02 117.586 162.748 120.997 167.534C124.408 172.32 120.383 173.192 121.024 174.994C121.539 191.705 119.828 221.885 115.511 235.721C115.13 236.36 115.072 237.047 114.977 237.461C114.954 237.563 114.975 237.673 115.048 237.75C115.291 238.006 115.867 238.575 116.253 238.644C130.743 240.932 153.714 262.409 159.811 269.791L147.277 274.81C145.273 273.452 137.954 269.402 124.711 264.067C108.157 257.398 95.7274 258.613 91.4662 253.362Z" fill="#FBC6D7"/>
<path d="M103.067 192.905C104.805 188.101 106.806 175.143 106.052 168.904C93.7982 178.164 90.819 244.148 90.8387 249.561C90.8543 253.891 124.864 273.769 141.867 283.167L157.185 271.848C150.437 266.655 124.335 256.9 121.283 254.57C117.47 251.659 101.229 250.693 99.3181 248.214C97.4075 245.734 99.2673 234.171 99.2397 226.564C99.2122 218.958 100.895 198.911 103.067 192.905Z" fill="#FEF2F7"/>
</g>
<path d="M103.346 179.195L86.3778 161.787C65.167 181.096 61.51 197.772 57.4141 205.379C53.3182 212.985 54.4885 210.938 51.124 222.055C47.7596 233.172 34.5943 262.136 34.8868 266.817C35.1209 270.562 40.8356 270.718 43.6637 270.328C68.59 233.348 71.067 220.787 68.9703 218.983C85.9389 208.217 98.8117 187.874 103.346 179.195Z" fill="#FF7CA6"/>
<mask id="mask2_1_377" style="mask-type:alpha" maskUnits="userSpaceOnUse" x="34" y="161" width="70" height="110">
<path d="M103.346 179.195L86.3778 161.787C65.167 181.096 61.51 197.772 57.4141 205.379C53.3182 212.985 54.4885 210.938 51.124 222.055C47.7596 233.172 34.5943 262.136 34.8868 266.817C35.1209 270.562 40.8356 270.718 43.6637 270.328C68.59 233.348 71.067 220.787 68.9703 218.983C85.9389 208.217 98.8117 187.874 103.346 179.195Z" fill="#FF7CA6"/>
</mask>
<g mask="url(#mask2_1_377)">
<path d="M100.42 179.194L83.4511 161.787C62.2404 181.096 58.5834 197.772 54.4875 205.378C50.3916 212.985 51.5619 210.937 48.1974 222.054C44.8329 233.172 31.6676 262.135 31.9602 266.816C32.1942 270.561 37.9089 270.717 40.7371 270.327C62.5567 237.956 65.809 226.638 66.3314 220.445C66.4058 219.564 67.0629 218.69 66.9166 217.812C67.6613 217.34 68.8232 216.998 69.5496 216.496C85.3755 205.555 96.084 187.492 100.42 179.194Z" fill="#FEB3CB"/>
<path d="M94.4177 170.71L81.6961 159.739C60.4853 179.048 56.8283 195.724 52.7324 203.331C48.6365 210.938 49.8068 208.89 46.4423 220.007C43.0779 231.124 29.9126 260.088 30.2051 264.769C30.4392 268.514 36.7342 269.401 39.5623 269.011C48.6317 254.968 62.1523 226.2 62.6747 220.007C62.7491 219.125 63.4061 218.252 63.2598 217.374C64.0045 216.901 67.0681 214.951 67.7946 214.448C83.6204 203.507 90.082 179.009 94.4177 170.71Z" fill="#FBC6D7"/>
<path d="M71.8909 183.583C73.1782 181.945 83.2521 169.54 88.1281 163.543C87.4942 162.47 85.7291 160.5 83.7397 161.202C81.2529 162.08 72.7686 167.346 59.8959 179.487C47.0231 191.629 30.2008 264.623 29.3231 266.524C28.621 268.046 32.9314 268.524 35.1743 268.572C39.319 257.894 47.9593 235.718 49.3636 232.441C51.119 228.345 56.3851 212.254 57.1165 210.353C57.8479 208.451 70.2818 185.631 71.8909 183.583Z" fill="#FEF2F7"/>
</g>
<path d="M107.437 203.623C94.2135 186.303 80.5704 175.927 75.4018 172.904C76.1039 170.68 82.4233 164.663 85.4952 161.933C97.3147 181.827 113.727 168.662 120.456 159.592C136.606 168.603 132.159 189.678 127.917 199.088C123.187 201.039 113.727 204.676 113.727 203.623V193.968C111.738 196.777 108.705 201.575 107.437 203.623Z" fill="url(#paint1_linear_1_377)"/>
<mask id="mask3_1_377" style="mask-type:alpha" maskUnits="userSpaceOnUse" x="75" y="159" width="57" height="45">
<path d="M107.437 203.623C94.2135 186.303 80.5704 175.927 75.4018 172.904C76.1039 170.68 82.4233 164.663 85.4952 161.933C97.3147 181.827 113.727 168.662 120.456 159.592C136.606 168.603 132.159 189.678 127.917 199.088C123.187 201.039 113.727 204.676 113.727 203.623V193.968C111.738 196.777 108.705 201.575 107.437 203.623Z" fill="url(#paint2_linear_1_377)"/>
</mask>
<g mask="url(#mask3_1_377)">
<path d="M74.6705 168.808C79.712 172.518 82.9073 174.055 91.3465 182.705C100.855 190.604 107.064 197.845 109.193 199.966C112.718 203.479 111.592 202.428 111.826 203.331C120.895 200.99 128.18 198.269 132.744 194.993" stroke="white" stroke-opacity="0.5" stroke-width="0.292562"/>
<path d="M92.0773 174.952C95.9782 176.805 105.33 179.399 111.533 174.952C110.216 178.658 104.482 183.846 92.0773 174.952Z" fill="url(#paint3_linear_1_377)"/>
<path d="M78.3278 172.319C80.2295 174.367 89.4452 182.851 89.2989 184.168L74.0857 172.758L75.5485 167.785L85.3493 160.47C88.275 161.885 93.7166 165.151 92.0783 166.907C90.4399 168.662 88.0799 166.761 87.1047 165.59C84.1791 166.907 83.594 166.907 82.57 167.785C81.546 170.564 78.3278 172.027 78.3278 172.319Z" fill="url(#paint4_linear_1_377)"/>
</g>
<path d="M115.378 131.946C116.314 142.595 120.156 155.692 121.96 160.909C103.968 186.216 87.5842 170.417 85.8288 164.712C84.4245 160.149 84.5611 142.234 84.8049 133.847C80.8553 131.946 72.8098 121.852 78.9536 116.879C83.8687 112.9 93.0036 105.322 97.7821 101.08H105.974C115.628 108.248 114.207 118.634 115.378 131.946Z" fill="url(#paint5_linear_1_377)"/>
<mask id="mask4_1_377" style="mask-type:alpha" maskUnits="userSpaceOnUse" x="76" y="101" width="46" height="74">
<path d="M115.377 131.945C116.313 142.594 120.155 155.691 121.959 160.909C103.967 186.215 87.5834 170.417 85.828 164.712C84.4237 160.148 84.5603 142.234 84.8041 133.847C80.8545 131.945 72.809 121.852 78.9528 116.878C83.8679 112.899 93.0028 105.322 97.7813 101.08H105.973C115.628 108.248 114.207 118.634 115.377 131.945Z" fill="url(#paint6_linear_1_377)"/>
</mask>
<g mask="url(#mask4_1_377)">
<path d="M108.315 112.489C108.315 119.356 103.212 122.876 96.7226 122.876C90.2329 122.876 84.032 117.31 84.032 110.443C84.032 103.577 89.1346 100.056 95.6242 100.056C102.114 100.056 108.315 105.623 108.315 112.489Z" fill="#647B64"/>
<path d="M107.22 112.105C107.22 118.355 102.486 121.56 96.4659 121.56C90.4455 121.56 84.032 116.054 84.032 109.804C84.032 103.553 88.7657 100.349 94.7862 100.349C100.807 100.349 107.22 105.855 107.22 112.105Z" fill="#647B64"/>
<path d="M87.2502 143.168C88.0683 139.834 83.2016 134.651 81.9841 133.262L79.6436 164.05L83.15 168.516C87.9714 167.176 84.3744 160.138 87.2502 154.034C89.0034 150.313 86.2275 147.336 87.2502 143.168Z" fill="url(#paint7_linear_1_377)"/>
<path d="M90.1635 148.329C91.1875 153.254 87.3842 159.739 99.5255 167.346C91.9189 167.346 86.5358 164.01 90.1635 148.329Z" fill="url(#paint8_linear_1_377)"/>
<path d="M91.1358 150.562C91.8779 152.093 91.1889 154.533 95.7502 156.029C93.2901 156.655 91.2709 156.004 91.1358 150.562Z" fill="url(#paint9_linear_1_377)"/>
<path d="M84.3247 133.847C88.2029 133.249 90.1759 134.286 96.5165 130.482C95.4654 131.647 85.7875 140.722 84.3247 133.847Z" fill="#647B64"/>
<path d="M134.061 149.437C131.361 154.844 127.017 149.437 122.028 149.437C112.931 137.977 114.566 123.961 112.931 113.891C108.089 96.5546 93.4152 103.451 86.6655 99.0435C90.9697 95.5664 107.883 92.0734 112.931 96.7749C119.24 102.652 134.061 143.119 134.061 149.437Z" fill="#647B64"/>
<path d="M75.8406 121.99L81.6918 108.971L85.2026 110.833L84.1786 113.514C83.2638 115.51 81.2254 118.669 78.6199 120.399C77.3034 120.399 78.2489 125.87 77.8885 126.086C77.2675 126.457 76.3048 121.785 75.8406 121.99Z" fill="url(#paint10_linear_1_377)"/>
</g>
<path d="M22.9034 298.409C12.4762 300.705 12.9053 293.284 14.4232 289.286C16.7577 301.047 34.408 293.564 42.9414 288.353C42.969 288.861 43.0037 289.963 42.9212 290.305C42.8181 290.731 35.9373 295.539 22.9034 298.409Z" fill="#C5F4F2"/>
<path d="M41.7996 283.111C43.3305 279.267 44.02 272.861 43.9506 270.035C42.7031 270.215 36.8236 268.414 34.2627 267.595C33.5067 270.723 30.3227 276.425 28.8807 278.033C20.4498 281.533 15.7289 286.994 14.4224 289.286C13.05 304.305 41.758 291.378 42.7687 289.064C43.5773 287.213 42.4595 284.324 41.7996 283.111Z" fill="#F1FEFC"/>
<path d="M19.6682 283.785C20.4971 283.932 22.5646 284.809 24.2029 287.15" stroke="#14D1A4" stroke-width="0.877687" stroke-linecap="round" stroke-linejoin="round"/>
<path d="M23.4711 280.86C24.3001 281.006 26.3675 281.884 28.0058 284.224" stroke="#14D1A4" stroke-width="0.877687" stroke-linecap="round" stroke-linejoin="round"/>
<path d="M27.8605 278.227C28.6894 278.373 29.7329 278.519 31.3712 280.86" stroke="#14D1A4" stroke-width="0.877687" stroke-linecap="round" stroke-linejoin="round"/>
<path d="M35.466 262.618L34.2632 267.595C36.5059 271.267 41.0123 271.634 43.1617 271.25C43.3779 269.858 44.4099 267.539 44.8989 266.553C42.86 263.532 37.7607 262.671 35.466 262.618Z" fill="#F7FFFD"/>
<path d="M15.6289 289.277C16.04 291.935 19.07 296.459 27.9008 293.296" stroke="#AAFEE7" stroke-width="0.877687"/>
<path d="M38.5626 286.543C33.541 288.64 30.5929 292.743 29.1165 294.493C30.4777 294.34 33.9762 292.858 35.5552 292.136L38.5626 286.543Z" fill="#AAFEE7" stroke="#DAFFF5" stroke-width="0.292562"/>
<path d="M34.5109 268.526C36.5238 268.951 40.752 270.232 41.5617 271.956C42.5738 274.112 35.5928 271.93 34.5109 268.526Z" fill="white" stroke="#14D1A4" stroke-width="0.292562"/>
<path d="M34.4448 268.708C35.3437 270.772 36.9999 275.27 36.4335 276.751C35.1419 275.685 32.9359 272.584 34.4448 268.708Z" fill="white" stroke="#14D1A4" stroke-width="0.292562"/>
<path d="M34.033 268.377C32.1365 267.579 27.9316 266.224 26.284 267.181C24.2245 268.376 31.2055 270.558 34.033 268.377Z" stroke="#14D1A4" stroke-width="0.292562"/>
<path d="M33.9839 268.564C32.0697 269.749 28.1468 272.503 27.7689 274.043C29.4376 273.903 33.017 272.61 33.9839 268.564Z" stroke="#14D1A4" stroke-width="0.292562"/>
<path d="M34.7718 268.972C34.6704 269.255 34.5091 269.478 34.3378 269.613C34.1645 269.75 34.0007 269.783 33.8752 269.738C33.7497 269.693 33.6446 269.563 33.5977 269.348C33.5514 269.134 33.569 268.859 33.6703 268.577C33.7717 268.294 33.933 268.071 34.1044 267.936C34.2777 267.799 34.4415 267.766 34.567 267.811C34.6925 267.856 34.7976 267.986 34.8444 268.201C34.8908 268.415 34.8732 268.69 34.7718 268.972Z" fill="#14D1A4" stroke="#14D1A4" stroke-width="0.292562"/>
<path d="M98.2844 85.7804C105.059 93.863 101.107 102.09 98.2844 103.668C90.2659 114.908 84.6322 103.935 82.7313 98.0937C81.6944 92.8842 83.3534 89.9164 86.5331 86.8854C89.7129 83.8545 95.001 82.9388 98.2844 85.7804Z" fill="#FF7CA6"/>
<mask id="mask5_1_377" style="mask-type:alpha" maskUnits="userSpaceOnUse" x="82" y="83" width="21" height="26">
<path d="M98.5772 85.6875C105.352 93.8062 101.4 102.07 98.5772 103.655C90.5587 114.945 84.7632 103.876 82.8623 98.0089C81.8254 92.7761 83.6461 89.842 86.8259 86.7974C90.0057 83.7529 95.2938 82.8332 98.5772 85.6875Z" fill="#FF7CA6"/>
</mask>
<g mask="url(#mask5_1_377)">
<path d="M97.0513 86.5991C104.365 94.0594 101.151 101.026 98.3441 102.602C90.3701 113.822 83.5885 102.491 81.6981 96.66C80.667 91.4595 81.299 96.0116 85.9167 94.3235C95.4422 90.8412 96.6124 85.7214 97.0513 86.5991Z" fill="#FEB3CB"/>
<path d="M97.051 87.6233C104.804 98.1555 99.7274 102.282 96.9047 103.86C88.8862 115.1 82.5685 101.217 80.6675 95.3762C82.4229 95.6688 83.8842 98.2232 88.5667 95.815C93.6866 93.182 93.6866 93.9134 97.051 87.6233Z" fill="#FBC6D7"/>
<path d="M96.5005 92.145C96.1221 90.8925 96.2513 88.3917 97.1906 88.909C97.7356 88.909 98.3838 91.6883 98.3838 91.6883C99.389 94.4015 100.038 99.3622 98.9536 100.203C97.305 98.2793 96.4316 97.1624 92.4542 96.9853C90.7218 94.6448 97.1906 94.4294 96.5005 92.145Z" fill="#FEF2F7" fill-opacity="0.3"/>
</g>
<path d="M87.2509 71.7789C86.7828 72.364 84.9104 72.9979 84.0327 73.2417C86.6658 76.7524 92.8388 84.1835 96.4666 85.8218C100.094 87.4602 101.099 93.3309 101.148 96.0615C101.382 96.5296 101.538 99.7673 101.586 101.328C103.108 101.211 103.554 98.8409 103.586 97.6706C103.893 99.4809 103.679 101.972 103.488 103.229C105.595 103.346 108.451 100.547 109.616 99.1334C109.894 102.293 109.496 104.015 109.193 104.546C110.363 103.961 113.289 102.059 115.629 99.1334C118.555 95.4764 114.898 91.8194 113.581 91.2342C112.265 90.6491 111.972 78.3615 111.534 75.2896C111.182 72.8321 107.681 69.6822 105.975 68.4144C92.0782 61.978 87.836 71.0475 87.2509 71.7789Z" fill="url(#paint11_linear_1_377)"/>
<path d="M87.3973 91.7187C78.5034 97.3359 72.3303 89.8171 70.2824 85.1361C75.256 80.1625 74.3823 80.9374 78.6204 78.5534C80.9609 77.2369 82.1312 77.6757 83.0089 72.5559C84.8813 72.907 94.1262 74.165 97.3444 80.7477L98.3684 80.8939C110.656 83.0004 112.216 77.3344 111.387 74.3113C117.122 83.9073 104.268 84.9898 97.3444 84.2584C96.7593 85.5749 96.2912 86.1015 87.3973 91.7187Z" fill="url(#paint12_linear_1_377)"/>
<mask id="mask6_1_377" style="mask-type:alpha" maskUnits="userSpaceOnUse" x="70" y="72" width="43" height="22">
<path d="M87.3973 91.7187C78.5034 97.3359 72.3303 89.8171 70.2824 85.1361C75.256 80.1625 74.3823 80.9374 78.6204 78.5534C80.9609 77.2369 82.1312 77.6757 83.0089 72.5559C84.8813 72.907 94.1262 74.165 97.3444 80.7477L98.3684 80.8939C110.656 83.0004 112.216 77.3344 111.387 74.3113C117.122 83.9073 104.268 84.9898 97.3444 84.2584C96.7593 85.5749 96.2912 86.1015 87.3973 91.7187Z" fill="url(#paint13_linear_1_377)"/>
</mask>
<g mask="url(#mask6_1_377)">
<path d="M78.3278 96.9848L93.2485 89.817C90.4692 87.1839 84.7642 89.8116 80.9609 86.1545C77.1576 82.4975 81.2535 79.8645 77.4502 78.6942L65.6014 84.4046L78.3278 96.9848Z" fill="url(#paint14_linear_1_377)" fill-opacity="0.3"/>
<path d="M76.5339 81.1239C71.3578 83.0744 71.9785 84.05 70.4291 85.8811L69.4052 84.4183L74.2324 79.0059L82.1316 70.6544C85.2035 72.4098 82.2026 76.9217 81.4002 77.5296C79.7917 78.7483 78.9202 78.5821 77.5476 80.3567C77.2842 80.6974 76.9368 80.972 76.5339 81.1239Z" fill="#C1DBF7"/>
</g>
<path d="M82.8635 77.9684C83.0097 79.8213 86.813 82.9876 95.8825 84.3041" stroke="#BAD4F6" stroke-width="0.292562" stroke-linecap="round" stroke-linejoin="round"/>
<path d="M89.7018 77.6065C87.3873 77.05 86.4609 76.5456 85.3134 75.2344C84.8968 76.3797 85.7575 78.7057 86.319 78.7451C86.4375 78.7534 88.6124 77.5463 89.7018 77.6065Z" fill="#B8D2F6"/>
<path d="M86.8107 114.245C81.2838 108.373 67.5147 94.8909 61.6393 89.9073C61.4558 89.7517 61.3444 89.5392 61.3781 89.3009C61.8036 86.29 68.1606 75.2672 75.9859 67.5816C77.3024 64.3634 78.3264 64.5097 79.7892 60.4138C80.9595 57.1371 84.1776 56.708 85.933 57.3419C86.5181 57.5532 86.0881 58.4519 85.0553 58.6584C83.5925 58.951 82.5686 60.4138 82.5686 61.2915C82.5686 61.8946 81.9834 65.6799 86.2256 63.9245C87.3958 62.4617 88.1272 64.9485 83.4462 68.313C79.7892 69.9221 69.4033 85.4103 70.5735 86.1593C73.6537 87.0738 78.0774 94.1943 87.981 96.9841C98.3669 99.9097 108.021 106.054 104.511 114.245C101 122.437 93.8322 121.706 86.8107 114.245Z" fill="#FF7CA6"/>
<mask id="mask7_1_377" style="mask-type:alpha" maskUnits="userSpaceOnUse" x="61" y="57" width="45" height="64">
<path d="M86.8107 114.246C81.2838 108.373 67.5147 94.8914 61.6393 89.9078C61.4558 89.7522 61.3444 89.5397 61.3781 89.3014C61.8036 86.2905 68.1606 75.2677 75.9859 67.5821C77.3024 64.3639 78.3264 64.5101 79.7892 60.4143C80.9595 57.1376 84.1776 56.7085 85.933 57.3424C86.5181 57.5537 86.0881 58.4524 85.0553 58.6589C83.5925 58.9515 82.5686 60.4143 82.5686 61.292C82.5686 61.8951 81.9834 65.6804 86.2256 63.925C87.3958 62.4622 88.1272 64.949 83.4462 68.3135C79.7892 69.9226 69.4033 85.4108 70.5735 86.1598C73.6537 87.0743 78.0774 94.1948 87.981 96.9846C98.3669 99.9102 108.021 106.054 104.511 114.246C101 122.437 93.8322 121.706 86.8107 114.246Z" fill="#FF7CA6"/>
</mask>
<g mask="url(#mask7_1_377)">
<path d="M84.912 115.372C79.3851 109.499 65.616 96.0174 59.7406 91.0338C59.5571 90.8782 59.4457 90.6657 59.4794 90.4275C59.9049 87.4165 66.2619 76.3937 74.0872 68.7081C75.4038 65.4899 76.4277 65.6362 77.8905 61.5403C79.0608 58.2636 84.1782 56.1234 85.9336 56.7573C86.5187 56.9686 86.6738 58.5987 85.641 58.8053C84.1782 59.0978 83.3005 60.2307 83.008 61.2546C82.8423 61.8346 81.6915 65.2485 85.9336 63.4932C87.1039 62.0304 87.689 65.3879 81.8377 68.7081C78.1807 70.3172 67.5046 86.5368 68.6748 87.2858C71.755 88.2003 76.1787 95.3208 86.0823 98.1106C96.4682 101.036 106.123 107.18 102.612 115.372C99.1013 123.563 91.9335 122.832 84.912 115.372Z" fill="#FEB3CB"/>
<mask id="mask8_1_377" style="mask-type:alpha" maskUnits="userSpaceOnUse" x="59" y="56" width="45" height="66">
<path d="M84.912 115.372C79.3851 109.499 65.616 96.0174 59.7406 91.0338C59.5571 90.8782 59.4457 90.6657 59.4794 90.4275C59.9049 87.4165 66.2619 76.3937 74.0872 68.7081C75.4038 65.4899 76.4277 65.6362 77.8905 61.5403C79.0608 58.2636 84.1782 56.1234 85.9336 56.7573C86.5187 56.9686 86.6738 58.5987 85.641 58.8053C84.1782 59.0978 83.3005 60.2307 83.008 61.2546C82.8423 61.8346 81.6915 65.2485 85.9336 63.4932C87.1039 62.0304 87.689 65.3879 81.8377 68.7081C78.1807 70.3172 67.5046 86.5368 68.6748 87.2858C71.755 88.2003 76.1787 95.3208 86.0823 98.1106C96.4682 101.036 106.123 107.18 102.612 115.372C99.1013 123.563 91.9335 122.832 84.912 115.372Z" fill="#FEB3CB"/>
</mask>
<g mask="url(#mask8_1_377)">
<path d="M83.4495 115.483C77.9226 109.61 64.1535 96.1283 58.2781 91.1447C58.0946 90.9891 57.9832 90.7766 58.0169 90.5384C58.4424 87.5274 64.7994 76.5046 72.6247 68.819C73.9412 65.6008 74.9652 65.7471 76.428 61.6512C77.5983 58.3745 86.0802 55.8306 87.8355 56.4645C88.4207 56.6758 89.0058 60.0103 86.2265 59.5364C84.7559 59.2856 84.9123 60.6273 84.6197 61.6512C84.4541 62.2311 82.7157 64.3637 86.9579 62.6083C88.1281 61.1455 88.2744 63.9691 82.4231 67.2893C78.7661 68.8984 66.0421 86.6478 67.2123 87.3967C70.2925 88.3112 74.7162 95.4318 84.6197 98.2215C95.0057 101.147 104.66 107.291 101.15 115.483C97.6388 123.674 90.471 122.943 83.4495 115.483Z" fill="#FBC6D7"/>
<path d="M85.2023 57.7808C88.5668 60.4139 88.456 55.7329 86.2263 55.2941C83.7395 56.2693 76.4778 59.4777 75.6586 59.8288C74.6346 60.2676 59.8957 90.4015 58.7255 91.2792C57.7893 91.9814 65.2106 96.5453 67.9412 100.641L98.3676 123.607C99.099 120.535 97.1096 119.19 94.4181 117.902C91.0536 116.293 88.8594 115.416 87.3966 112.783C85.9337 110.149 79.2048 103.567 76.1329 100.641C73.061 97.7156 63.1139 90.6941 63.1139 88.4999C63.1139 86.9741 67.7949 79.5767 73.061 71.6776C79.7899 65.68 81.8277 55.1398 85.2023 57.7808Z" fill="#FEF2F7"/>
</g>
</g>
<path d="M142.106 142.039C146.609 152.659 144.318 152.811 131.428 158.276C118.537 163.742 104.627 172.47 100.123 161.85C95.6205 151.229 88.1057 126.127 100.996 120.661C113.887 115.196 137.603 131.418 142.106 142.039Z" fill="url(#paint15_linear_1_377)"/>
<ellipse cx="121.65" cy="151.895" rx="26.395" ry="22.8704" transform="rotate(-22.9766 121.65 151.895)" fill="url(#paint16_radial_1_377)" fill-opacity="0.5"/>
<ellipse cx="121.518" cy="152.234" rx="24.5741" ry="20.8328" transform="rotate(-22.9766 121.518 152.234)" fill="#F0DCC5"/>
<ellipse cx="121.411" cy="151.646" rx="23.2587" ry="19.1628" transform="rotate(-22.9766 121.411 151.646)" fill="url(#paint17_radial_1_377)"/>
<mask id="mask9_1_377" style="mask-type:alpha" maskUnits="userSpaceOnUse" x="98" y="131" width="47" height="41">
<ellipse cx="121.411" cy="151.646" rx="23.2587" ry="19.1628" transform="rotate(-22.9766 121.411 151.646)" fill="#D16035"/>
</mask>
<g mask="url(#mask9_1_377)">
</g>
<circle cx="65.1406" cy="94.1966" r="47.6863" transform="rotate(-150 65.1406 94.1966)" fill="url(#paint18_linear_1_377)"/>
<defs>
<linearGradient id="paint0_linear_1_377" x1="135.694" y1="194.396" x2="124.067" y2="271.968" gradientUnits="userSpaceOnUse">
<stop stop-color="#FF78A3"/>
<stop offset="1" stop-color="#FF8EB2"/>
</linearGradient>
<linearGradient id="paint1_linear_1_377" x1="103.639" y1="159.592" x2="91.2002" y2="203.916" gradientUnits="userSpaceOnUse">
<stop stop-color="#647B64"/>
<stop offset="1" stop-color="#647B64"/>
</linearGradient>
<linearGradient id="paint2_linear_1_377" x1="103.639" y1="159.592" x2="91.2002" y2="203.916" gradientUnits="userSpaceOnUse">
<stop stop-color="#647B64"/>
<stop offset="1" stop-color="#647B64"/>
</linearGradient>
<linearGradient id="paint3_linear_1_377" x1="107.144" y1="174.074" x2="104.658" y2="180.803" gradientUnits="userSpaceOnUse">
<stop stop-color="#C1C5FF"/>
<stop offset="1" stop-color="#C7CAFF" stop-opacity="0"/>
</linearGradient>
<linearGradient id="paint4_linear_1_377" x1="84.6179" y1="170.856" x2="82.57" y2="161.641" gradientUnits="userSpaceOnUse">
<stop stop-color="#DBF3F8"/>
<stop offset="1" stop-color="#99B5F3"/>
</linearGradient>
<linearGradient id="paint5_linear_1_377" x1="99.433" y1="99.1785" x2="101.335" y2="178.902" gradientUnits="userSpaceOnUse">
<stop stop-color="#647B64"/>
<stop offset="1" stop-color="#647B64"/>
</linearGradient>
<linearGradient id="paint6_linear_1_377" x1="99.4322" y1="99.1782" x2="101.334" y2="178.901" gradientUnits="userSpaceOnUse">
<stop stop-color="#647B64"/>
<stop offset="1" stop-color="#647B64"/>
</linearGradient>
<linearGradient id="paint7_linear_1_377" x1="81.1046" y1="140.988" x2="87.764" y2="169.205" gradientUnits="userSpaceOnUse">
<stop stop-color="#99B5F3"/>
<stop offset="1" stop-color="#DBF3F8"/>
</linearGradient>
<linearGradient id="paint8_linear_1_377" x1="96.3073" y1="170.856" x2="86.3602" y2="156.374" gradientUnits="userSpaceOnUse">
<stop stop-color="#C1C5FF"/>
<stop offset="1" stop-color="#C1C5FF" stop-opacity="0"/>
</linearGradient>
<linearGradient id="paint9_linear_1_377" x1="96.905" y1="163.249" x2="90.4498" y2="153.599" gradientUnits="userSpaceOnUse">
<stop stop-color="#C1C5FF"/>
<stop offset="1" stop-color="#C1C5FF" stop-opacity="0"/>
</linearGradient>
<linearGradient id="paint10_linear_1_377" x1="85.7877" y1="126.378" x2="82.2769" y2="107.801" gradientUnits="userSpaceOnUse">
<stop stop-color="#647B64"/>
<stop offset="1" stop-color="#DBF3F8"/>
</linearGradient>
<linearGradient id="paint11_linear_1_377" x1="100.27" y1="80.5557" x2="100.384" y2="104.546" gradientUnits="userSpaceOnUse">
<stop stop-color="#050753"/>
<stop offset="1" stop-color="#008294"/>
</linearGradient>
<linearGradient id="paint12_linear_1_377" x1="72.0378" y1="92.4501" x2="113.582" y2="79.2848" gradientUnits="userSpaceOnUse">
<stop stop-color="#647B64"/>
<stop offset="0.511301" stop-color="#647B64"/>
<stop offset="0.857583" stop-color="#5EC0DF"/>
<stop offset="1" stop-color="white"/>
</linearGradient>
<linearGradient id="paint13_linear_1_377" x1="93.6874" y1="83.2344" x2="116.215" y2="80.6014" gradientUnits="userSpaceOnUse">
<stop stop-color="#02C3CD"/>
<stop offset="1" stop-color="white"/>
</linearGradient>
<linearGradient id="paint14_linear_1_377" x1="78.7667" y1="92.4501" x2="79.9369" y2="81.479" gradientUnits="userSpaceOnUse">
<stop stop-color="white"/>
<stop offset="1" stop-color="#003BD5" stop-opacity="0"/>
<stop offset="1" stop-color="white"/>
</linearGradient>
<linearGradient id="paint15_linear_1_377" x1="100.855" y1="128.288" x2="125.377" y2="170.854" gradientUnits="userSpaceOnUse">
<stop stop-color="#F5FF7C" stop-opacity="0"/>
<stop offset="0.544444" stop-color="#F0DCC5"/>
<stop offset="1" stop-color="#AD8B64"/>
</linearGradient>
<radialGradient id="paint16_radial_1_377" cx="0" cy="0" r="1" gradientUnits="userSpaceOnUse" gradientTransform="translate(121.966 179.921) rotate(-84.1426) scale(33.7603 38.9813)">
<stop stop-color="#FFEC3E"/>
<stop offset="1" stop-color="#F0DCC5"/>
</radialGradient>
<radialGradient id="paint17_radial_1_377" cx="0" cy="0" r="1" gradientUnits="userSpaceOnUse" gradientTransform="translate(120.163 135.28) rotate(91.0357) scale(44.6301 54.1694)">
<stop stop-color="#F0DCC5"/>
<stop offset="0.546875" stop-color="#F0DCC5"/>
<stop offset="1" stop-color="#CF9B5E"/>
</radialGradient>
<linearGradient id="paint18_linear_1_377" x1="161.081" y1="-224.847" x2="39.0267" y2="152.669" gradientUnits="userSpaceOnUse">
<stop stop-color="#EF8031" stop-opacity="0"/>
<stop offset="0.692955" stop-color="#EF8031" stop-opacity="0.15"/>
<stop offset="1" stop-color="#EF8031" stop-opacity="0"/>
</linearGradient>
<clipPath id="clip0_1_377">
<rect width="62.7604" height="82.0286" fill="white" transform="translate(98.0567) rotate(26.2336)"/>
</clipPath>
</defs>
</svg>
